<svg width="128" height="72" viewBox="0 0 128 72" fill="none" xmlns="http://www.w3.org/2000/svg">
<rect x="1" y="1" width="126" height="70" rx="7" stroke="#EFEFEF" stroke-width="2"/>
<path d="M33.9834 41.7684C33.8325 41.7684 33.675 41.7487 33.5044 41.6962C32.3363 41.3747 31.0434 41.7487 30.2297 42.6347C29.8819 43.0087 29.4159 43.2122 28.9172 43.2122C27.9328 43.2122 27.1322 42.4116 27.1322 41.4272C27.1322 41.355 27.1453 41.2631 27.1584 41.1516C27.2963 40.2853 27.0797 39.4125 26.5613 38.7037C26.0494 38.0081 25.2619 37.5291 24.4088 37.3978C23.8969 37.3191 23.5097 36.8662 23.5097 36.3544C23.5097 36.0853 23.6081 35.8425 23.7919 35.6391C24.435 34.9434 24.75 33.9984 24.645 33.0534C24.5334 32.115 24.0281 31.2619 23.2472 30.7237C22.9519 30.5203 22.5384 30.5925 22.335 30.8878C22.125 31.1831 22.1972 31.5966 22.4991 31.8C22.965 32.1281 23.2734 32.6334 23.3391 33.2044C23.4047 33.7687 23.2144 34.3397 22.8272 34.7597C22.5384 35.0747 22.1972 35.6062 22.1972 36.3675C22.1972 37.5291 23.0634 38.5331 24.2119 38.7103C24.7238 38.7891 25.1963 39.0712 25.5047 39.4912C25.8131 39.9178 25.9444 40.4362 25.8591 40.9612C25.8263 41.1516 25.8197 41.3025 25.8197 41.4337C25.8197 43.1466 27.2109 44.5312 28.9172 44.5312C29.79 44.5312 30.5972 44.1769 31.1944 43.5272C31.6866 42.9956 32.4609 42.7725 33.1631 42.9628C33.4453 43.0416 33.7209 43.0809 33.99 43.0809C34.3509 43.0809 34.6463 42.7856 34.6463 42.4247C34.6397 42.0637 34.3444 41.7684 33.9834 41.7684Z" fill="#359740"/>
<path d="M37.7241 43.3894C38.5444 42.4903 39.0497 41.2959 39.0497 39.9834C39.0497 39.3075 38.7675 38.5594 38.5312 37.9688C39.6469 37.0369 40.5 35.7506 40.5 34.1888C40.5 31.3866 38.2294 29.1225 35.4338 29.1225C34.8694 29.1225 34.4494 29.2669 33.9375 29.4375C33.4256 27.6131 31.6275 26.2219 29.6391 26.2219C28.7072 26.2219 28.0837 26.3138 27.375 26.8125C26.5809 25.8872 25.1634 25.5 23.8444 25.5C21.4425 25.5 19.5 27.4425 19.5 29.8444C19.5 31.3275 20.3334 32.5941 21.4688 33.375C20.7534 34.1494 20.2219 35.2256 20.2219 36.3609C20.2219 38.5331 22.0069 40.2722 24.0938 40.5938C24.0544 40.8497 23.8444 41.1647 23.8444 41.4338C23.8444 44.2359 26.115 46.5 28.9106 46.5C30.3806 46.5 31.6931 45.5353 32.625 44.5312C32.9859 44.8003 33.5175 45.0497 33.9834 45.0497C34.9941 45.0497 35.9325 44.7478 36.72 44.2425C37.2056 44.9316 37.6256 45.5812 37.9603 46.1653C38.085 46.3819 38.3016 46.5 38.5312 46.5C38.6428 46.5 38.7544 46.4738 38.8594 46.4147C39.1744 46.2375 39.2859 45.8372 39.1022 45.5222C38.7281 44.8725 38.2622 44.1506 37.7241 43.3894ZM33.4059 43.4812C33.1763 43.3041 32.9006 43.2188 32.625 43.2188C32.2706 43.2188 31.9163 43.3631 31.6603 43.6388C31.1288 44.2162 30.0591 45.1875 28.9106 45.1875C26.8697 45.1875 25.2094 43.5534 25.1569 41.5322C25.17 41.4994 25.1831 41.4731 25.1962 41.4403C25.2684 41.2697 25.3537 41.0531 25.3931 40.7906C25.4456 40.4494 25.3603 40.095 25.1569 39.8128C24.9469 39.5372 24.6384 39.3469 24.2906 39.2944C22.9388 39.0909 21.5344 37.9359 21.5344 36.3609C21.5344 35.6587 21.8691 34.8713 22.4334 34.2609C22.6894 33.9788 22.8141 33.6047 22.7747 33.2241C22.7353 32.8434 22.5319 32.5022 22.2169 32.2922C21.3244 31.6819 20.8125 30.7828 20.8125 29.8444C20.8125 28.1709 22.1709 26.8125 23.8444 26.8125C24.9534 26.8125 25.9247 27.1406 26.3775 27.6656C26.64 27.9675 27.0075 28.125 27.375 28.125C27.6375 28.125 27.9 28.0463 28.1297 27.8822C28.5234 27.6066 28.8319 27.5344 29.6391 27.5344C31.0041 27.5344 32.31 28.5056 32.6775 29.7919C32.7759 30.1397 33.0122 30.4284 33.3272 30.5991C33.5175 30.6975 33.7275 30.75 33.9375 30.75C34.0753 30.75 34.2197 30.7303 34.3575 30.6844L34.3903 30.6712C34.8628 30.5138 35.1056 30.435 35.4272 30.435C37.5009 30.435 39.1809 32.1216 39.1809 34.1888C39.1809 35.4422 38.3672 36.3872 37.6847 36.9581C37.245 37.3256 37.0941 37.9294 37.3106 38.4609C37.4484 38.8022 37.7372 39.5044 37.7372 39.9834C37.7372 40.8562 37.4353 41.6634 36.93 42.3C36.0572 41.1319 35.0531 39.8981 33.99 38.6644L36.4903 33.6703C36.6544 33.3487 36.5231 32.955 36.195 32.7909C35.8734 32.6269 35.4797 32.7581 35.3156 33.0863L33.0581 37.5947C32.0475 36.4528 31.0041 35.3306 29.9869 34.2872L30.6431 30.1988C30.7022 29.8378 30.4594 29.5031 30.0984 29.4441C29.7441 29.385 29.4028 29.6278 29.3438 29.9887L28.8384 33.1322C28.1034 32.3906 27.3816 31.7147 26.7188 31.1241V29.4375C26.7188 29.0766 26.4234 28.7812 26.0625 28.7812C25.7016 28.7812 25.4062 29.0766 25.4062 29.4375V30.0019C24.7369 29.4703 24.1659 29.07 23.7328 28.8534C23.4047 28.6894 23.0109 28.8206 22.8534 29.1422C22.6894 29.4703 22.8206 29.8641 23.1422 30.0216C23.7197 30.3103 24.5728 30.96 25.5834 31.8525C25.6031 31.8656 25.6163 31.8787 25.6294 31.8919C26.6859 32.8238 27.9197 34.0181 29.1994 35.3438H25.4062C25.0453 35.3438 24.75 35.6391 24.75 36C24.75 36.3609 25.0453 36.6562 25.4062 36.6562H30.3609C30.3872 36.6562 30.4069 36.6431 30.4331 36.6431C31.0959 37.3584 31.7653 38.1 32.415 38.8416L28.5103 39.9638C28.1625 40.0622 27.9591 40.4297 28.0641 40.7775C28.1428 41.0597 28.3988 41.25 28.6875 41.25C28.7466 41.25 28.8056 41.2434 28.8713 41.2237L33.3534 39.9375C34.2919 41.0466 35.1712 42.1425 35.9456 43.1794C35.3747 43.5338 34.6987 43.7437 33.9769 43.7437C33.9047 43.7372 33.6553 43.6584 33.4059 43.4812Z" fill="#359740"/>
<path d="M68.145 41.5V31.7H69.657V41.5H68.145ZM61.747 41.5V31.7H63.259V41.5H61.747ZM62.405 37.342V35.886H68.817V37.342H62.405ZM72.3974 41.5V31.7H78.5714V33.156H73.9094V40.044H78.5714V41.5H72.3974ZM73.0834 37.202V35.746H77.8014V37.202H73.0834ZM80.997 41.5V31.7H85.169C85.729 31.7 86.2423 31.84 86.709 32.12C87.185 32.3907 87.563 32.764 87.843 33.24C88.123 33.7067 88.263 34.234 88.263 34.822C88.263 35.354 88.123 35.8487 87.843 36.306C87.563 36.7633 87.1897 37.132 86.723 37.412C86.2563 37.6827 85.7383 37.818 85.169 37.818H82.509V41.5H80.997ZM86.821 41.5L84.329 37.076L85.883 36.726L88.655 41.514L86.821 41.5ZM82.509 36.362H85.309C85.5797 36.362 85.8223 36.2967 86.037 36.166C86.2517 36.026 86.4197 35.8393 86.541 35.606C86.6623 35.3633 86.723 35.0973 86.723 34.808C86.723 34.4813 86.6437 34.1967 86.485 33.954C86.3357 33.702 86.121 33.506 85.841 33.366C85.5703 33.226 85.2623 33.156 84.917 33.156H82.509V36.362ZM90.7314 41.5V31.7H94.8194C95.4447 31.7 95.972 31.7933 96.4014 31.98C96.8307 32.1667 97.1527 32.4467 97.3674 32.82C97.5914 33.184 97.7034 33.632 97.7034 34.164C97.7034 34.696 97.554 35.1487 97.2554 35.522C96.966 35.8953 96.56 36.152 96.0374 36.292V36.012C96.476 36.1053 96.8587 36.2733 97.1854 36.516C97.512 36.7493 97.764 37.0433 97.9414 37.398C98.128 37.7527 98.2214 38.1587 98.2214 38.616C98.2214 39.0827 98.1467 39.498 97.9974 39.862C97.8574 40.2167 97.6427 40.5153 97.3534 40.758C97.0734 41.0007 96.7327 41.1873 96.3314 41.318C95.93 41.4393 95.4727 41.5 94.9594 41.5H90.7314ZM92.2434 40.044H94.8754C95.258 40.044 95.58 39.988 95.8414 39.876C96.112 39.764 96.3174 39.6007 96.4574 39.386C96.6067 39.162 96.6814 38.896 96.6814 38.588C96.6814 38.2987 96.602 38.0513 96.4434 37.846C96.294 37.6407 96.0794 37.4867 95.7994 37.384C95.5194 37.272 95.188 37.216 94.8054 37.216H92.2434V40.044ZM92.2434 35.76H94.7354C95.0154 35.76 95.2627 35.704 95.4774 35.592C95.7014 35.48 95.874 35.326 95.9954 35.13C96.126 34.934 96.1914 34.71 96.1914 34.458C96.1914 34.038 96.0514 33.716 95.7714 33.492C95.4914 33.268 95.09 33.156 94.5674 33.156H92.2434V35.76ZM103.285 41.64C102.753 41.64 102.258 41.57 101.801 41.43C101.353 41.29 100.942 41.08 100.569 40.8C100.205 40.5107 99.878 40.156 99.5887 39.736L100.625 38.546C101.082 39.1993 101.521 39.652 101.941 39.904C102.361 40.156 102.86 40.282 103.439 40.282C103.793 40.282 104.115 40.226 104.405 40.114C104.694 40.002 104.923 39.848 105.091 39.652C105.259 39.456 105.343 39.232 105.343 38.98C105.343 38.812 105.315 38.6533 105.259 38.504C105.203 38.3547 105.114 38.2193 104.993 38.098C104.881 37.9767 104.731 37.8647 104.545 37.762C104.367 37.6593 104.157 37.5707 103.915 37.496C103.672 37.412 103.392 37.342 103.075 37.286C102.571 37.1833 102.132 37.048 101.759 36.88C101.385 36.712 101.073 36.502 100.821 36.25C100.569 35.998 100.382 35.7133 100.261 35.396C100.139 35.0693 100.079 34.7053 100.079 34.304C100.079 33.912 100.163 33.548 100.331 33.212C100.508 32.876 100.746 32.5867 101.045 32.344C101.353 32.092 101.712 31.9007 102.123 31.77C102.533 31.63 102.977 31.56 103.453 31.56C103.957 31.56 104.419 31.6253 104.839 31.756C105.259 31.8867 105.632 32.0827 105.959 32.344C106.285 32.596 106.556 32.9087 106.771 33.282L105.707 34.332C105.52 34.024 105.31 33.7673 105.077 33.562C104.843 33.3473 104.587 33.1887 104.307 33.086C104.027 32.974 103.728 32.918 103.411 32.918C103.047 32.918 102.729 32.974 102.459 33.086C102.188 33.198 101.973 33.3567 101.815 33.562C101.665 33.758 101.591 33.9913 101.591 34.262C101.591 34.458 101.628 34.64 101.703 34.808C101.777 34.9667 101.889 35.1113 102.039 35.242C102.197 35.3633 102.407 35.4753 102.669 35.578C102.93 35.6713 103.243 35.7553 103.607 35.83C104.12 35.942 104.577 36.0867 104.979 36.264C105.38 36.432 105.721 36.6327 106.001 36.866C106.281 37.0993 106.491 37.3607 106.631 37.65C106.78 37.9393 106.855 38.252 106.855 38.588C106.855 39.2133 106.71 39.7547 106.421 40.212C106.131 40.6693 105.721 41.024 105.189 41.276C104.657 41.5187 104.022 41.64 103.285 41.64Z" fill="#1F2533"/>
</svg>
