<svg width="24" height="24" viewBox="0 0 24 24" fill="none" xmlns="http://www.w3.org/2000/svg">
<g clip-path="url(#clip0_217_3030)">
<g clip-path="url(#clip1_217_3030)">
<path d="M12 21C16.9706 21 21 16.9706 21 12C21 7.02944 16.9706 3 12 3C7.02944 3 3 7.02944 3 12C3 16.9706 7.02944 21 12 21Z" fill="url(#paint0_linear_217_3030)"/>
<path d="M9.09216 12.6579L10.1599 15.6134C10.1599 15.6134 10.2934 15.8899 10.4364 15.8899C10.5793 15.8899 12.7055 13.678 12.7055 13.678L15.0699 9.11124L9.13026 11.895L9.09216 12.6579Z" fill="#C8DAEA"/>
<path d="M10.5079 13.4159L10.303 15.5943C10.303 15.5943 10.2172 16.2618 10.8845 15.5943C11.5519 14.9268 12.1906 14.4121 12.1906 14.4121" fill="#A9C6D8"/>
<path d="M9.11144 12.7633L6.91499 12.0477C6.91499 12.0477 6.65249 11.9412 6.73701 11.6997C6.75441 11.6499 6.78951 11.6075 6.89451 11.5347C7.38119 11.1955 15.9025 8.13269 15.9025 8.13269C15.9025 8.13269 16.1431 8.05162 16.285 8.10554C16.3201 8.11641 16.3517 8.13641 16.3765 8.16349C16.4013 8.19057 16.4185 8.22376 16.4263 8.25967C16.4417 8.32309 16.4481 8.38835 16.4454 8.45354C16.4447 8.50994 16.4379 8.56222 16.4327 8.64419C16.3808 9.48157 14.8277 15.7312 14.8277 15.7312C14.8277 15.7312 14.7348 16.0969 14.4019 16.1094C14.32 16.112 14.2385 16.0982 14.1622 16.0686C14.0858 16.0391 14.0162 15.9945 13.9575 15.9375C13.3042 15.3755 11.0461 13.858 10.5471 13.5242C10.5358 13.5165 10.5264 13.5066 10.5193 13.4949C10.5122 13.4833 10.5077 13.4702 10.5061 13.4567C10.4992 13.4215 10.5374 13.378 10.5374 13.378C10.5374 13.378 14.4694 9.88297 14.574 9.51607C14.5821 9.48764 14.5515 9.47362 14.5104 9.48607C14.2492 9.58214 9.72209 12.4411 9.22244 12.7566C9.18647 12.7675 9.14846 12.7698 9.11144 12.7633Z" fill="white"/>
</g>
</g>
<defs>
<linearGradient id="paint0_linear_217_3030" x1="12" y1="21" x2="12" y2="3" gradientUnits="userSpaceOnUse">
<stop stop-color="#1D93D2"/>
<stop offset="1" stop-color="#38B0E3"/>
</linearGradient>
<clipPath id="clip0_217_3030">
<rect width="18" height="18" fill="white" transform="translate(3 3)"/>
</clipPath>
<clipPath id="clip1_217_3030">
<rect width="18" height="18" fill="white" transform="translate(3 3)"/>
</clipPath>
</defs>
</svg>
